# xmcd
#
# Track frame offsets:
#	150
#	19986
#	36015
#	57803
#
# Disc length: 1074 seconds
#
# Revision: 1
# Processed by: cddbd v1.4PL0 Copyright (c) Steve Scherf et al.
# Submitted via: EasyCDDAExtractor 6.0.0.1
#
DISCID=2a043004
DTITLE=Nikos Karvelas - Party Gia Spasmenes Kardies
DYEAR=2003
DGENRE=Greek Pop
TTITLE0=Boom Boom Boom
TTITLE1=Fevgeis (H Tsikla)
TTITLE2=Party Gia Spasmenes Kardies
TTITLE3=Kati Niwthw
EXTD=
EXTT0=
EXTT1=
EXTT2=
EXTT3=
PLAYORDER=
